# ProBuilder 5.0.3
# https://unity3d.com/unity/features/worldbuilding/probuilder
# 10/16/2022 4:26:59 AM

mtllib ./Prism.mtl
o Prism

g Prism (1)
v 9.536743E-07 0 2.384186E-07
v 2.832805 0 2.384186E-07
v 1.416403 2.283747 2.384186E-07
v 2.832805 0 5.256581
v 1.416403 2.283747 5.256581
v 9.536743E-07 0 5.256581

vt -9.536743E-07 0
vt -2.832805 0
vt -1.416403 2.283747
vt -2.384186E-07 -1.493082
vt -5.256581 -1.493082
vt -2.384186E-07 1.19424
vt -5.256581 1.19424
vt 2.832805 0
vt 1.416403 2.283747
vt 5.256581 5.026515E-07
vt 5.256581 2.687322
vt 2.384186E-07 2.687322
vt 9.536743E-07 5.256581
vt 2.832805 5.256581

vn 0 0 -1
vn 0.8498229 0.5270683 0
vn 0 0 1
vn -0.8498229 0.5270683 0
vn 0 -1 0

usemtl DefaultHDMaterial
f 3/3/1 2/2/1 1/1/1
f 5/9/3 6/1/3 4/8/3
f 3/6/2 5/7/2 4/5/2
f 4/5/2 2/4/2 3/6/2
f 5/11/4 3/12/4 1/1/4
f 1/1/4 6/10/4 5/11/4
f 2/8/5 4/14/5 6/13/5
f 6/13/5 1/1/5 2/8/5

