# ProBuilder 5.0.3
# https://unity3d.com/unity/features/worldbuilding/probuilder
# 10/16/2022 4:22:25 AM

mtllib ./Stairs.mtl
o Stairs

g Stairs (3)
v 3.720662 -2.384186E-07 -2.384186E-07
v -9.536743E-07 -2.384186E-07 -2.384186E-07
v 3.720662 0.1536876 -2.384186E-07
v -9.536743E-07 0.1536876 -2.384186E-07
v 3.720662 0.1536876 0.2614658
v -9.536743E-07 0.1536876 0.2614658
v 3.720662 0.3073754 0.2614658
v -9.536743E-07 0.3073754 0.2614658
v 3.720662 0.3073754 0.5229316
v -9.536743E-07 0.3073754 0.5229316
v 3.720662 0.4610633 0.5229316
v -9.536743E-07 0.4610633 0.5229316
v 3.720662 0.4610633 0.7843976
v -9.536743E-07 0.4610633 0.7843976
v 3.720662 0.614751 0.7843976
v -9.536743E-07 0.614751 0.7843976
v 3.720662 0.614751 1.045863
v -9.536743E-07 0.614751 1.045863
v 3.720662 0.7684389 1.045863
v -9.536743E-07 0.7684389 1.045863
v 3.720662 0.7684389 1.307329
v -9.536743E-07 0.7684389 1.307329
v 3.720662 0.9221267 1.307329
v -9.536743E-07 0.9221267 1.307329
v 3.720662 0.9221267 1.568795
v -9.536743E-07 0.9221267 1.568795
v 3.720662 1.075814 1.568795
v -9.536743E-07 1.075814 1.568795
v 3.720662 1.075814 1.830261
v -9.536743E-07 1.075814 1.830261
v 3.720662 1.229502 1.830261
v -9.536743E-07 1.229502 1.830261
v 3.720662 1.229502 2.091727
v -9.536743E-07 1.229502 2.091727
v 3.720662 1.38319 2.091727
v -9.536743E-07 1.38319 2.091727
v 3.720662 1.38319 2.353193
v -9.536743E-07 1.38319 2.353193
v 3.720662 1.536878 2.353193
v -9.536743E-07 1.536878 2.353193
v 3.720662 1.536878 2.614659
v -9.536743E-07 1.536878 2.614659
v 3.720662 1.690566 2.614659
v -9.536743E-07 1.690566 2.614659
v 3.720662 1.690566 2.876125
v -9.536743E-07 1.690566 2.876125
v 3.720662 1.844254 2.876125
v -9.536743E-07 1.844254 2.876125
v 3.720662 1.844254 3.137591
v -9.536743E-07 1.844254 3.137591
v 3.720662 1.997941 3.137591
v -9.536743E-07 1.997941 3.137591
v 3.720662 1.997941 3.399057
v -9.536743E-07 1.997941 3.399057
v 3.720662 2.151629 3.399057
v -9.536743E-07 2.151629 3.399057
v 3.720662 2.151629 3.660523
v -9.536743E-07 2.151629 3.660523
v 3.720662 2.305317 3.660523
v -9.536743E-07 2.305317 3.660523
v 3.720662 2.305317 3.921988
v -9.536743E-07 2.305317 3.921988
v 3.720662 2.459005 3.921988
v -9.536743E-07 2.459005 3.921988
v 3.720662 2.459005 4.183455
v -9.536743E-07 2.459005 4.183455
v 3.720662 2.612693 4.183455
v -9.536743E-07 2.612693 4.183455
v 3.720662 2.612693 4.444921
v -9.536743E-07 2.612693 4.444921
v 3.720662 2.766381 4.444921
v -9.536743E-07 2.766381 4.444921
v 3.720662 2.766381 4.706387
v -9.536743E-07 2.766381 4.706387
v 3.720662 2.920068 4.706387
v -9.536743E-07 2.920068 4.706387
v 3.720662 2.920068 4.967852
v -9.536743E-07 2.920068 4.967852
v 3.720662 3.073756 4.967852
v -9.536743E-07 3.073756 4.967852
v 3.720662 3.073756 5.229318
v -9.536743E-07 3.073756 5.229318
v 3.720662 3.227444 5.229318
v -9.536743E-07 3.227444 5.229318
v 3.720662 3.227444 5.490784
v -9.536743E-07 3.227444 5.490784
v 3.720662 3.381132 5.490784
v -9.536743E-07 3.381132 5.490784
v 3.720662 3.381132 5.75225
v -9.536743E-07 3.381132 5.75225
v 3.720662 3.53482 5.75225
v -9.536743E-07 3.53482 5.75225
v 3.720662 3.53482 6.013716
v -9.536743E-07 3.53482 6.013716
v 3.720662 3.688507 6.013716
v -9.536743E-07 3.688507 6.013716
v 3.720662 3.688507 6.275182
v -9.536743E-07 3.688507 6.275182
v 3.720662 3.842195 6.275182
v -9.536743E-07 3.842195 6.275182
v 3.720662 3.842195 6.536648
v -9.536743E-07 3.842195 6.536648
v 3.720662 3.995883 6.536648
v -9.536743E-07 3.995883 6.536648
v 3.720662 3.995883 6.798114
v -9.536743E-07 3.995883 6.798114
v -9.536743E-07 -2.384186E-07 0.2614658
v -9.536743E-07 -2.384186E-07 0.5229316
v -9.536743E-07 -2.384186E-07 0.7843976
v -9.536743E-07 -2.384186E-07 1.045863
v -9.536743E-07 -2.384186E-07 1.307329
v -9.536743E-07 -2.384186E-07 1.568795
v -9.536743E-07 -2.384186E-07 1.830261
v -9.536743E-07 -2.384186E-07 2.091727
v -9.536743E-07 -2.384186E-07 2.353193
v -9.536743E-07 -2.384186E-07 2.614659
v -9.536743E-07 -2.384186E-07 2.876125
v -9.536743E-07 -2.384186E-07 3.137591
v -9.536743E-07 -2.384186E-07 3.399057
v -9.536743E-07 -2.384186E-07 3.660523
v -9.536743E-07 -2.384186E-07 3.921988
v -9.536743E-07 -2.384186E-07 4.183455
v -9.536743E-07 -2.384186E-07 4.444921
v -9.536743E-07 -2.384186E-07 4.706387
v -9.536743E-07 -2.384186E-07 4.967852
v -9.536743E-07 -2.384186E-07 5.229319
v -9.536743E-07 -2.384186E-07 5.490784
v -9.536743E-07 -2.384186E-07 5.75225
v -9.536743E-07 -2.384186E-07 6.013716
v -9.536743E-07 -2.384186E-07 6.275182
v -9.536743E-07 -2.384186E-07 6.536648
v -9.536743E-07 -2.384186E-07 6.798114
v 3.720662 -2.384186E-07 0.2614658
v 3.720662 -2.384186E-07 0.5229316
v 3.720662 -2.384186E-07 0.7843976
v 3.720662 -2.384186E-07 1.045863
v 3.720662 -2.384186E-07 1.307329
v 3.720662 -2.384186E-07 1.568795
v 3.720662 -2.384186E-07 1.830261
v 3.720662 -2.384186E-07 2.091727
v 3.720662 -2.384186E-07 2.353193
v 3.720662 -2.384186E-07 2.614659
v 3.720662 -2.384186E-07 2.876125
v 3.720662 -2.384186E-07 3.137591
v 3.720662 -2.384186E-07 3.399057
v 3.720662 -2.384186E-07 3.660523
v 3.720662 -2.384186E-07 3.921988
v 3.720662 -2.384186E-07 4.183455
v 3.720662 -2.384186E-07 4.444921
v 3.720662 -2.384186E-07 4.706387
v 3.720662 -2.384186E-07 4.967852
v 3.720662 -2.384186E-07 5.229319
v 3.720662 -2.384186E-07 5.490784
v 3.720662 -2.384186E-07 5.75225
v 3.720662 -2.384186E-07 6.013716
v 3.720662 -2.384186E-07 6.275182
v 3.720662 -2.384186E-07 6.536648
v 3.720662 -2.384186E-07 6.798114

vt -3.720662 -2.384186E-07
vt 9.536743E-07 -2.384186E-07
vt -3.720662 0.1536876
vt 9.536743E-07 0.1536876
vt -3.720662 0.2614658
vt 9.536743E-07 0.2614658
vt -3.720662 0.3073754
vt 9.536743E-07 0.3073754
vt -3.720662 0.5229316
vt 9.536743E-07 0.5229316
vt -3.720662 0.4610633
vt 9.536743E-07 0.4610633
vt -3.720662 0.7843976
vt 9.536743E-07 0.7843976
vt -3.720662 0.614751
vt 9.536743E-07 0.614751
vt -3.720662 1.045863
vt 9.536743E-07 1.045863
vt -3.720662 0.7684389
vt 9.536743E-07 0.7684389
vt -3.720662 1.307329
vt 9.536743E-07 1.307329
vt -3.720662 0.9221267
vt 9.536743E-07 0.9221267
vt -3.720662 1.568795
vt 9.536743E-07 1.568795
vt -3.720662 1.075814
vt 9.536743E-07 1.075814
vt -3.720662 1.830261
vt 9.536743E-07 1.830261
vt -3.720662 1.229502
vt 9.536743E-07 1.229502
vt -3.720662 2.091727
vt 9.536743E-07 2.091727
vt -3.720662 1.38319
vt 9.536743E-07 1.38319
vt -3.720662 2.353193
vt 9.536743E-07 2.353193
vt -3.720662 1.536878
vt 9.536743E-07 1.536878
vt -3.720662 2.614659
vt 9.536743E-07 2.614659
vt -3.720662 1.690566
vt 9.536743E-07 1.690566
vt -3.720662 2.876125
vt 9.536743E-07 2.876125
vt -3.720662 1.844254
vt 9.536743E-07 1.844254
vt -3.720662 3.137591
vt 9.536743E-07 3.137591
vt -3.720662 1.997941
vt 9.536743E-07 1.997941
vt -3.720662 3.399057
vt 9.536743E-07 3.399057
vt -3.720662 2.151629
vt 9.536743E-07 2.151629
vt -3.720662 3.660523
vt 9.536743E-07 3.660523
vt -3.720662 2.305317
vt 9.536743E-07 2.305317
vt -3.720662 3.921988
vt 9.536743E-07 3.921988
vt -3.720662 2.459005
vt 9.536743E-07 2.459005
vt -3.720662 4.183455
vt 9.536743E-07 4.183455
vt -3.720662 2.612693
vt 9.536743E-07 2.612693
vt -3.720662 4.444921
vt 9.536743E-07 4.444921
vt -3.720662 2.766381
vt 9.536743E-07 2.766381
vt -3.720662 4.706387
vt 9.536743E-07 4.706387
vt -3.720662 2.920068
vt 9.536743E-07 2.920068
vt -3.720662 4.967852
vt 9.536743E-07 4.967852
vt -3.720662 3.073756
vt 9.536743E-07 3.073756
vt -3.720662 5.229318
vt 9.536743E-07 5.229318
vt -3.720662 3.227444
vt 9.536743E-07 3.227444
vt -3.720662 5.490784
vt 9.536743E-07 5.490784
vt -3.720662 3.381132
vt 9.536743E-07 3.381132
vt -3.720662 5.75225
vt 9.536743E-07 5.75225
vt -3.720662 3.53482
vt 9.536743E-07 3.53482
vt -3.720662 6.013716
vt 9.536743E-07 6.013716
vt -3.720662 3.688507
vt 9.536743E-07 3.688507
vt -3.720662 6.275182
vt 9.536743E-07 6.275182
vt -3.720662 3.842195
vt 9.536743E-07 3.842195
vt -3.720662 6.536648
vt 9.536743E-07 6.536648
vt -3.720662 3.995883
vt 9.536743E-07 3.995883
vt -3.720662 6.798114
vt 9.536743E-07 6.798114
vt 0.2614658 -2.384186E-07
vt 0.2614658 0.1536876
vt 0.5229316 -2.384186E-07
vt 0.5229316 0.3073754
vt 0.2614658 0.3073754
vt 0.7843976 -2.384186E-07
vt 0.7843976 0.4610633
vt 0.5229316 0.4610633
vt 1.045863 -2.384186E-07
vt 1.045863 0.614751
vt 0.7843976 0.614751
vt 1.307329 -2.384186E-07
vt 1.307329 0.7684389
vt 1.045863 0.7684389
vt 1.568795 -2.384186E-07
vt 1.568795 0.9221267
vt 1.307329 0.9221267
vt 1.830261 -2.384186E-07
vt 1.830261 1.075814
vt 1.568795 1.075814
vt 2.091727 -2.384186E-07
vt 2.091727 1.229502
vt 1.830261 1.229502
vt 2.353193 -2.384186E-07
vt 2.353193 1.38319
vt 2.091727 1.38319
vt 2.614659 -2.384186E-07
vt 2.614659 1.536878
vt 2.353193 1.536878
vt 2.876125 -2.384186E-07
vt 2.876125 1.690566
vt 2.614659 1.690566
vt 3.137591 -2.384186E-07
vt 3.137591 1.844254
vt 2.876125 1.844254
vt 3.399057 -2.384186E-07
vt 3.399057 1.997941
vt 3.137591 1.997941
vt 3.660523 -2.384186E-07
vt 3.660523 2.151629
vt 3.399057 2.151629
vt 3.921988 -2.384186E-07
vt 3.921988 2.305317
vt 3.660523 2.305317
vt 4.183455 -2.384186E-07
vt 4.183455 2.459005
vt 3.921988 2.459005
vt 4.444921 -2.384186E-07
vt 4.444921 2.612693
vt 4.183455 2.612693
vt 4.706387 -2.384186E-07
vt 4.706387 2.766381
vt 4.444921 2.766381
vt 4.967852 -2.384186E-07
vt 4.967852 2.920068
vt 4.706387 2.920068
vt 5.229319 -2.384186E-07
vt 5.229319 3.073756
vt 4.967852 3.073756
vt 5.490784 -2.384186E-07
vt 5.490784 3.227444
vt 5.229319 3.227444
vt 5.75225 -2.384186E-07
vt 5.75225 3.381132
vt 5.490784 3.381132
vt 6.013716 -2.384186E-07
vt 6.013716 3.53482
vt 5.75225 3.53482
vt 6.275182 -2.384186E-07
vt 6.275182 3.688507
vt 6.013716 3.688507
vt 6.536648 -2.384186E-07
vt 6.536648 3.842195
vt 6.275182 3.842195
vt 6.798114 -2.384186E-07
vt 6.798114 3.995883
vt 6.536648 3.995883
vt -0.2614658 -2.384186E-07
vt -0.2614658 0.1536876
vt -0.5229316 -2.384186E-07
vt -0.5229316 0.3073754
vt -0.2614658 0.3073754
vt -0.7843976 -2.384186E-07
vt -0.7843976 0.4610633
vt -0.5229316 0.4610633
vt -1.045863 -2.384186E-07
vt -1.045863 0.614751
vt -0.7843976 0.614751
vt -1.307329 -2.384186E-07
vt -1.307329 0.7684389
vt -1.045863 0.7684389
vt -1.568795 -2.384186E-07
vt -1.568795 0.9221267
vt -1.307329 0.9221267
vt -1.830261 -2.384186E-07
vt -1.830261 1.075814
vt -1.568795 1.075814
vt -2.091727 -2.384186E-07
vt -2.091727 1.229502
vt -1.830261 1.229502
vt -2.353193 -2.384186E-07
vt -2.353193 1.38319
vt -2.091727 1.38319
vt -2.614659 -2.384186E-07
vt -2.614659 1.536878
vt -2.353193 1.536878
vt -2.876125 -2.384186E-07
vt -2.876125 1.690566
vt -2.614659 1.690566
vt -3.137591 -2.384186E-07
vt -3.137591 1.844254
vt -2.876125 1.844254
vt -3.399057 -2.384186E-07
vt -3.399057 1.997941
vt -3.137591 1.997941
vt -3.660523 -2.384186E-07
vt -3.660523 2.151629
vt -3.399057 2.151629
vt -3.921988 -2.384186E-07
vt -3.921988 2.305317
vt -3.660523 2.305317
vt -4.183455 -2.384186E-07
vt -4.183455 2.459005
vt -3.921988 2.459005
vt -4.444921 -2.384186E-07
vt -4.444921 2.612693
vt -4.183455 2.612693
vt -4.706387 -2.384186E-07
vt -4.706387 2.766381
vt -4.444921 2.766381
vt -4.967852 -2.384186E-07
vt -4.967852 2.920068
vt -4.706387 2.920068
vt -5.229319 -2.384186E-07
vt -5.229319 3.073756
vt -4.967852 3.073756
vt -5.490784 -2.384186E-07
vt -5.490784 3.227444
vt -5.229319 3.227444
vt -5.75225 -2.384186E-07
vt -5.75225 3.381132
vt -5.490784 3.381132
vt -6.013716 -2.384186E-07
vt -6.013716 3.53482
vt -5.75225 3.53482
vt -6.275182 -2.384186E-07
vt -6.275182 3.688507
vt -6.013716 3.688507
vt -6.536648 -2.384186E-07
vt -6.536648 3.842195
vt -6.275182 3.842195
vt -6.798114 -2.384186E-07
vt -6.798114 3.995883
vt -6.536648 3.995883
vt 3.720662 -2.384186E-07
vt 3.720662 3.995883

vn 0 0 -1
vn 0 1 0
vn -1 0 0
vn 1 0 0
vn 0 0 1

usemtl DefaultHDMaterial
f 10/110/3 8/111/3 6/108/3
f 14/113/3 12/114/3 10/110/3
f 18/116/3 16/117/3 14/113/3
f 22/119/3 20/120/3 18/116/3
f 26/122/3 24/123/3 22/119/3
f 30/125/3 28/126/3 26/122/3
f 34/128/3 32/129/3 30/125/3
f 38/131/3 36/132/3 34/128/3
f 42/134/3 40/135/3 38/131/3
f 46/137/3 44/138/3 42/134/3
f 50/140/3 48/141/3 46/137/3
f 54/143/3 52/144/3 50/140/3
f 58/146/3 56/147/3 54/143/3
f 62/149/3 60/150/3 58/146/3
f 66/152/3 64/153/3 62/149/3
f 70/155/3 68/156/3 66/152/3
f 74/158/3 72/159/3 70/155/3
f 78/161/3 76/162/3 74/158/3
f 82/164/3 80/165/3 78/161/3
f 86/167/3 84/168/3 82/164/3
f 90/170/3 88/171/3 86/167/3
f 94/173/3 92/174/3 90/170/3
f 98/176/3 96/177/3 94/173/3
f 102/179/3 100/180/3 98/176/3
f 106/182/3 104/183/3 102/179/3
f 5/185/4 7/188/4 9/187/4
f 9/187/4 11/191/4 13/190/4
f 13/190/4 15/194/4 17/193/4
f 17/193/4 19/197/4 21/196/4
f 21/196/4 23/200/4 25/199/4
f 25/199/4 27/203/4 29/202/4
f 29/202/4 31/206/4 33/205/4
f 33/205/4 35/209/4 37/208/4
f 37/208/4 39/212/4 41/211/4
f 41/211/4 43/215/4 45/214/4
f 45/214/4 47/218/4 49/217/4
f 49/217/4 51/221/4 53/220/4
f 53/220/4 55/224/4 57/223/4
f 57/223/4 59/227/4 61/226/4
f 61/226/4 63/230/4 65/229/4
f 65/229/4 67/233/4 69/232/4
f 69/232/4 71/236/4 73/235/4
f 73/235/4 75/239/4 77/238/4
f 77/238/4 79/242/4 81/241/4
f 81/241/4 83/245/4 85/244/4
f 85/244/4 87/248/4 89/247/4
f 89/247/4 91/251/4 93/250/4
f 93/250/4 95/254/4 97/253/4
f 97/253/4 99/257/4 101/256/4
f 101/256/4 103/260/4 105/259/4
f 2/2/1 4/4/1 3/3/1
f 3/3/1 1/1/1 2/2/1
f 4/2/2 6/6/2 5/5/2
f 5/5/2 3/1/2 4/2/2
f 6/4/1 8/8/1 7/7/1
f 7/7/1 5/3/1 6/4/1
f 8/6/2 10/10/2 9/9/2
f 9/9/2 7/5/2 8/6/2
f 10/8/1 12/12/1 11/11/1
f 11/11/1 9/7/1 10/8/1
f 12/10/2 14/14/2 13/13/2
f 13/13/2 11/9/2 12/10/2
f 14/12/1 16/16/1 15/15/1
f 15/15/1 13/11/1 14/12/1
f 16/14/2 18/18/2 17/17/2
f 17/17/2 15/13/2 16/14/2
f 18/16/1 20/20/1 19/19/1
f 19/19/1 17/15/1 18/16/1
f 20/18/2 22/22/2 21/21/2
f 21/21/2 19/17/2 20/18/2
f 22/20/1 24/24/1 23/23/1
f 23/23/1 21/19/1 22/20/1
f 24/22/2 26/26/2 25/25/2
f 25/25/2 23/21/2 24/22/2
f 26/24/1 28/28/1 27/27/1
f 27/27/1 25/23/1 26/24/1
f 28/26/2 30/30/2 29/29/2
f 29/29/2 27/25/2 28/26/2
f 30/28/1 32/32/1 31/31/1
f 31/31/1 29/27/1 30/28/1
f 32/30/2 34/34/2 33/33/2
f 33/33/2 31/29/2 32/30/2
f 34/32/1 36/36/1 35/35/1
f 35/35/1 33/31/1 34/32/1
f 36/34/2 38/38/2 37/37/2
f 37/37/2 35/33/2 36/34/2
f 38/36/1 40/40/1 39/39/1
f 39/39/1 37/35/1 38/36/1
f 40/38/2 42/42/2 41/41/2
f 41/41/2 39/37/2 40/38/2
f 42/40/1 44/44/1 43/43/1
f 43/43/1 41/39/1 42/40/1
f 44/42/2 46/46/2 45/45/2
f 45/45/2 43/41/2 44/42/2
f 46/44/1 48/48/1 47/47/1
f 47/47/1 45/43/1 46/44/1
f 48/46/2 50/50/2 49/49/2
f 49/49/2 47/45/2 48/46/2
f 50/48/1 52/52/1 51/51/1
f 51/51/1 49/47/1 50/48/1
f 52/50/2 54/54/2 53/53/2
f 53/53/2 51/49/2 52/50/2
f 54/52/1 56/56/1 55/55/1
f 55/55/1 53/51/1 54/52/1
f 56/54/2 58/58/2 57/57/2
f 57/57/2 55/53/2 56/54/2
f 58/56/1 60/60/1 59/59/1
f 59/59/1 57/55/1 58/56/1
f 60/58/2 62/62/2 61/61/2
f 61/61/2 59/57/2 60/58/2
f 62/60/1 64/64/1 63/63/1
f 63/63/1 61/59/1 62/60/1
f 64/62/2 66/66/2 65/65/2
f 65/65/2 63/61/2 64/62/2
f 66/64/1 68/68/1 67/67/1
f 67/67/1 65/63/1 66/64/1
f 68/66/2 70/70/2 69/69/2
f 69/69/2 67/65/2 68/66/2
f 70/68/1 72/72/1 71/71/1
f 71/71/1 69/67/1 70/68/1
f 72/70/2 74/74/2 73/73/2
f 73/73/2 71/69/2 72/70/2
f 74/72/1 76/76/1 75/75/1
f 75/75/1 73/71/1 74/72/1
f 76/74/2 78/78/2 77/77/2
f 77/77/2 75/73/2 76/74/2
f 78/76/1 80/80/1 79/79/1
f 79/79/1 77/75/1 78/76/1
f 80/78/2 82/82/2 81/81/2
f 81/81/2 79/77/2 80/78/2
f 82/80/1 84/84/1 83/83/1
f 83/83/1 81/79/1 82/80/1
f 84/82/2 86/86/2 85/85/2
f 85/85/2 83/81/2 84/82/2
f 86/84/1 88/88/1 87/87/1
f 87/87/1 85/83/1 86/84/1
f 88/86/2 90/90/2 89/89/2
f 89/89/2 87/85/2 88/86/2
f 90/88/1 92/92/1 91/91/1
f 91/91/1 89/87/1 90/88/1
f 92/90/2 94/94/2 93/93/2
f 93/93/2 91/89/2 92/90/2
f 94/92/1 96/96/1 95/95/1
f 95/95/1 93/91/1 94/92/1
f 96/94/2 98/98/2 97/97/2
f 97/97/2 95/93/2 96/94/2
f 98/96/1 100/100/1 99/99/1
f 99/99/1 97/95/1 98/96/1
f 100/98/2 102/102/2 101/101/2
f 101/101/2 99/97/2 100/98/2
f 102/100/1 104/104/1 103/103/1
f 103/103/1 101/99/1 102/100/1
f 104/102/2 106/106/2 105/105/2
f 105/105/2 103/101/2 104/102/2
f 107/107/3 6/108/3 4/4/3
f 4/4/3 2/2/3 107/107/3
f 108/109/3 10/110/3 6/108/3
f 6/108/3 107/107/3 108/109/3
f 109/112/3 14/113/3 10/110/3
f 10/110/3 108/109/3 109/112/3
f 110/115/3 18/116/3 14/113/3
f 14/113/3 109/112/3 110/115/3
f 111/118/3 22/119/3 18/116/3
f 18/116/3 110/115/3 111/118/3
f 112/121/3 26/122/3 22/119/3
f 22/119/3 111/118/3 112/121/3
f 113/124/3 30/125/3 26/122/3
f 26/122/3 112/121/3 113/124/3
f 114/127/3 34/128/3 30/125/3
f 30/125/3 113/124/3 114/127/3
f 115/130/3 38/131/3 34/128/3
f 34/128/3 114/127/3 115/130/3
f 116/133/3 42/134/3 38/131/3
f 38/131/3 115/130/3 116/133/3
f 117/136/3 46/137/3 42/134/3
f 42/134/3 116/133/3 117/136/3
f 118/139/3 50/140/3 46/137/3
f 46/137/3 117/136/3 118/139/3
f 119/142/3 54/143/3 50/140/3
f 50/140/3 118/139/3 119/142/3
f 120/145/3 58/146/3 54/143/3
f 54/143/3 119/142/3 120/145/3
f 121/148/3 62/149/3 58/146/3
f 58/146/3 120/145/3 121/148/3
f 122/151/3 66/152/3 62/149/3
f 62/149/3 121/148/3 122/151/3
f 123/154/3 70/155/3 66/152/3
f 66/152/3 122/151/3 123/154/3
f 124/157/3 74/158/3 70/155/3
f 70/155/3 123/154/3 124/157/3
f 125/160/3 78/161/3 74/158/3
f 74/158/3 124/157/3 125/160/3
f 126/163/3 82/164/3 78/161/3
f 78/161/3 125/160/3 126/163/3
f 127/166/3 86/167/3 82/164/3
f 82/164/3 126/163/3 127/166/3
f 128/169/3 90/170/3 86/167/3
f 86/167/3 127/166/3 128/169/3
f 129/172/3 94/173/3 90/170/3
f 90/170/3 128/169/3 129/172/3
f 130/175/3 98/176/3 94/173/3
f 94/173/3 129/172/3 130/175/3
f 131/178/3 102/179/3 98/176/3
f 98/176/3 130/175/3 131/178/3
f 132/181/3 106/182/3 102/179/3
f 102/179/3 131/178/3 132/181/3
f 3/4/4 5/185/4 133/184/4
f 133/184/4 1/2/4 3/4/4
f 5/185/4 9/187/4 134/186/4
f 134/186/4 133/184/4 5/185/4
f 9/187/4 13/190/4 135/189/4
f 135/189/4 134/186/4 9/187/4
f 13/190/4 17/193/4 136/192/4
f 136/192/4 135/189/4 13/190/4
f 17/193/4 21/196/4 137/195/4
f 137/195/4 136/192/4 17/193/4
f 21/196/4 25/199/4 138/198/4
f 138/198/4 137/195/4 21/196/4
f 25/199/4 29/202/4 139/201/4
f 139/201/4 138/198/4 25/199/4
f 29/202/4 33/205/4 140/204/4
f 140/204/4 139/201/4 29/202/4
f 33/205/4 37/208/4 141/207/4
f 141/207/4 140/204/4 33/205/4
f 37/208/4 41/211/4 142/210/4
f 142/210/4 141/207/4 37/208/4
f 41/211/4 45/214/4 143/213/4
f 143/213/4 142/210/4 41/211/4
f 45/214/4 49/217/4 144/216/4
f 144/216/4 143/213/4 45/214/4
f 49/217/4 53/220/4 145/219/4
f 145/219/4 144/216/4 49/217/4
f 53/220/4 57/223/4 146/222/4
f 146/222/4 145/219/4 53/220/4
f 57/223/4 61/226/4 147/225/4
f 147/225/4 146/222/4 57/223/4
f 61/226/4 65/229/4 148/228/4
f 148/228/4 147/225/4 61/226/4
f 65/229/4 69/232/4 149/231/4
f 149/231/4 148/228/4 65/229/4
f 69/232/4 73/235/4 150/234/4
f 150/234/4 149/231/4 69/232/4
f 73/235/4 77/238/4 151/237/4
f 151/237/4 150/234/4 73/235/4
f 77/238/4 81/241/4 152/240/4
f 152/240/4 151/237/4 77/238/4
f 81/241/4 85/244/4 153/243/4
f 153/243/4 152/240/4 81/241/4
f 85/244/4 89/247/4 154/246/4
f 154/246/4 153/243/4 85/244/4
f 89/247/4 93/250/4 155/249/4
f 155/249/4 154/246/4 89/247/4
f 93/250/4 97/253/4 156/252/4
f 156/252/4 155/249/4 93/250/4
f 97/253/4 101/256/4 157/255/4
f 157/255/4 156/252/4 97/253/4
f 101/256/4 105/259/4 158/258/4
f 158/258/4 157/255/4 101/256/4
f 158/261/5 105/262/5 106/104/5
f 106/104/5 132/2/5 158/261/5

